<mxfile host="app.diagrams.net" modified="2023-02-12T13:28:19.034Z" agent="5.0 (Macintosh; Intel Mac OS X 10_15_7) AppleWebKit/537.36 (KHTML, like Gecko) Chrome/109.0.0.0 Safari/537.36" etag="iGcnAZvffD7asaeFnDgo" version="20.8.20" type="github">
  <diagram id="44d4Uxd3VFlmBvp8XSln" name="페이지-1">
    <mxGraphModel dx="1194" dy="-396" grid="1" gridSize="10" guides="1" tooltips="1" connect="1" arrows="1" fold="1" page="1" pageScale="1" pageWidth="827" pageHeight="1169" math="0" shadow="0">
      <root>
        <mxCell id="0" />
        <mxCell id="1" parent="0" />
        <mxCell id="7wl6mXjxthsMlMUcTQdT-50" value="" style="edgeStyle=orthogonalEdgeStyle;rounded=0;orthogonalLoop=1;jettySize=auto;html=1;" parent="1" source="7wl6mXjxthsMlMUcTQdT-1" target="7wl6mXjxthsMlMUcTQdT-27" edge="1">
          <mxGeometry relative="1" as="geometry" />
        </mxCell>
        <mxCell id="7wl6mXjxthsMlMUcTQdT-1" value="" style="sketch=0;html=1;dashed=0;whitespace=wrap;fillColor=#2875E2;strokeColor=#ffffff;points=[[0.005,0.63,0],[0.1,0.2,0],[0.9,0.2,0],[0.5,0,0],[0.995,0.63,0],[0.72,0.99,0],[0.5,1,0],[0.28,0.99,0]];shape=mxgraph.kubernetes.icon;prIcon=ing" parent="1" vertex="1">
          <mxGeometry x="150" y="1411" width="50" height="48" as="geometry" />
        </mxCell>
        <mxCell id="7wl6mXjxthsMlMUcTQdT-6" value="" style="sketch=0;html=1;dashed=0;whitespace=wrap;fillColor=#2875E2;strokeColor=#ffffff;points=[[0.005,0.63,0],[0.1,0.2,0],[0.9,0.2,0],[0.5,0,0],[0.995,0.63,0],[0.72,0.99,0],[0.5,1,0],[0.28,0.99,0]];shape=mxgraph.kubernetes.icon;prIcon=pv" parent="1" vertex="1">
          <mxGeometry x="255" y="1840" width="50" height="48" as="geometry" />
        </mxCell>
        <mxCell id="7wl6mXjxthsMlMUcTQdT-25" value="" style="group" parent="1" vertex="1" connectable="0">
          <mxGeometry x="353" y="1330" width="280" height="161" as="geometry" />
        </mxCell>
        <mxCell id="7wl6mXjxthsMlMUcTQdT-26" value="" style="rounded=0;whiteSpace=wrap;html=1;fillColor=none;dashed=1;" parent="7wl6mXjxthsMlMUcTQdT-25" vertex="1">
          <mxGeometry x="100" y="22" width="180" height="139" as="geometry" />
        </mxCell>
        <mxCell id="7wl6mXjxthsMlMUcTQdT-52" value="" style="edgeStyle=orthogonalEdgeStyle;rounded=0;orthogonalLoop=1;jettySize=auto;html=1;" parent="7wl6mXjxthsMlMUcTQdT-25" source="7wl6mXjxthsMlMUcTQdT-27" target="7wl6mXjxthsMlMUcTQdT-28" edge="1">
          <mxGeometry relative="1" as="geometry" />
        </mxCell>
        <mxCell id="7wl6mXjxthsMlMUcTQdT-27" value="" style="sketch=0;html=1;dashed=0;whitespace=wrap;fillColor=#2875E2;strokeColor=#ffffff;points=[[0.005,0.63,0],[0.1,0.2,0],[0.9,0.2,0],[0.5,0,0],[0.995,0.63,0],[0.72,0.99,0],[0.5,1,0],[0.28,0.99,0]];shape=mxgraph.kubernetes.icon;prIcon=svc" parent="7wl6mXjxthsMlMUcTQdT-25" vertex="1">
          <mxGeometry y="81" width="50" height="48" as="geometry" />
        </mxCell>
        <mxCell id="7wl6mXjxthsMlMUcTQdT-28" value="" style="sketch=0;html=1;dashed=0;whitespace=wrap;fillColor=#2875E2;strokeColor=#ffffff;points=[[0.005,0.63,0],[0.1,0.2,0],[0.9,0.2,0],[0.5,0,0],[0.995,0.63,0],[0.72,0.99,0],[0.5,1,0],[0.28,0.99,0]];shape=mxgraph.kubernetes.icon;prIcon=pod" parent="7wl6mXjxthsMlMUcTQdT-25" vertex="1">
          <mxGeometry x="165" y="81" width="50" height="48" as="geometry" />
        </mxCell>
        <mxCell id="7wl6mXjxthsMlMUcTQdT-29" value="" style="sketch=0;html=1;dashed=0;whitespace=wrap;fillColor=#2875E2;strokeColor=#ffffff;points=[[0.005,0.63,0],[0.1,0.2,0],[0.9,0.2,0],[0.5,0,0],[0.995,0.63,0],[0.72,0.99,0],[0.5,1,0],[0.28,0.99,0]];shape=mxgraph.kubernetes.icon;prIcon=deploy" parent="7wl6mXjxthsMlMUcTQdT-25" vertex="1">
          <mxGeometry x="75" width="50" height="48" as="geometry" />
        </mxCell>
        <mxCell id="7wl6mXjxthsMlMUcTQdT-30" value="Customer" style="text;html=1;align=center;verticalAlign=middle;resizable=0;points=[];autosize=1;strokeColor=none;fillColor=none;" parent="7wl6mXjxthsMlMUcTQdT-25" vertex="1">
          <mxGeometry x="150" y="34" width="80" height="30" as="geometry" />
        </mxCell>
        <mxCell id="7wl6mXjxthsMlMUcTQdT-31" value="" style="group" parent="1" vertex="1" connectable="0">
          <mxGeometry x="793" y="1330" width="280" height="161" as="geometry" />
        </mxCell>
        <mxCell id="7wl6mXjxthsMlMUcTQdT-32" value="" style="rounded=0;whiteSpace=wrap;html=1;fillColor=none;dashed=1;" parent="7wl6mXjxthsMlMUcTQdT-31" vertex="1">
          <mxGeometry x="100" y="22" width="180" height="139" as="geometry" />
        </mxCell>
        <mxCell id="7wl6mXjxthsMlMUcTQdT-53" value="" style="edgeStyle=orthogonalEdgeStyle;rounded=0;orthogonalLoop=1;jettySize=auto;html=1;" parent="7wl6mXjxthsMlMUcTQdT-31" source="7wl6mXjxthsMlMUcTQdT-33" target="7wl6mXjxthsMlMUcTQdT-34" edge="1">
          <mxGeometry relative="1" as="geometry" />
        </mxCell>
        <mxCell id="7wl6mXjxthsMlMUcTQdT-33" value="" style="sketch=0;html=1;dashed=0;whitespace=wrap;fillColor=#2875E2;strokeColor=#ffffff;points=[[0.005,0.63,0],[0.1,0.2,0],[0.9,0.2,0],[0.5,0,0],[0.995,0.63,0],[0.72,0.99,0],[0.5,1,0],[0.28,0.99,0]];shape=mxgraph.kubernetes.icon;prIcon=svc" parent="7wl6mXjxthsMlMUcTQdT-31" vertex="1">
          <mxGeometry y="81" width="50" height="48" as="geometry" />
        </mxCell>
        <mxCell id="7wl6mXjxthsMlMUcTQdT-34" value="" style="sketch=0;html=1;dashed=0;whitespace=wrap;fillColor=#2875E2;strokeColor=#ffffff;points=[[0.005,0.63,0],[0.1,0.2,0],[0.9,0.2,0],[0.5,0,0],[0.995,0.63,0],[0.72,0.99,0],[0.5,1,0],[0.28,0.99,0]];shape=mxgraph.kubernetes.icon;prIcon=pod" parent="7wl6mXjxthsMlMUcTQdT-31" vertex="1">
          <mxGeometry x="165" y="81" width="50" height="48" as="geometry" />
        </mxCell>
        <mxCell id="7wl6mXjxthsMlMUcTQdT-35" value="" style="sketch=0;html=1;dashed=0;whitespace=wrap;fillColor=#2875E2;strokeColor=#ffffff;points=[[0.005,0.63,0],[0.1,0.2,0],[0.9,0.2,0],[0.5,0,0],[0.995,0.63,0],[0.72,0.99,0],[0.5,1,0],[0.28,0.99,0]];shape=mxgraph.kubernetes.icon;prIcon=deploy" parent="7wl6mXjxthsMlMUcTQdT-31" vertex="1">
          <mxGeometry x="75" width="50" height="48" as="geometry" />
        </mxCell>
        <mxCell id="7wl6mXjxthsMlMUcTQdT-36" value="Fraud" style="text;html=1;align=center;verticalAlign=middle;resizable=0;points=[];autosize=1;strokeColor=none;fillColor=none;" parent="7wl6mXjxthsMlMUcTQdT-31" vertex="1">
          <mxGeometry x="165" y="34" width="50" height="30" as="geometry" />
        </mxCell>
        <mxCell id="7wl6mXjxthsMlMUcTQdT-43" value="" style="group" parent="1" vertex="1" connectable="0">
          <mxGeometry x="613" y="1754.5" width="205" height="161" as="geometry" />
        </mxCell>
        <mxCell id="7wl6mXjxthsMlMUcTQdT-38" value="" style="rounded=0;whiteSpace=wrap;html=1;fillColor=none;dashed=1;" parent="7wl6mXjxthsMlMUcTQdT-43" vertex="1">
          <mxGeometry x="25" y="22" width="180" height="139" as="geometry" />
        </mxCell>
        <mxCell id="7wl6mXjxthsMlMUcTQdT-40" value="" style="sketch=0;html=1;dashed=0;whitespace=wrap;fillColor=#2875E2;strokeColor=#ffffff;points=[[0.005,0.63,0],[0.1,0.2,0],[0.9,0.2,0],[0.5,0,0],[0.995,0.63,0],[0.72,0.99,0],[0.5,1,0],[0.28,0.99,0]];shape=mxgraph.kubernetes.icon;prIcon=pod" parent="7wl6mXjxthsMlMUcTQdT-43" vertex="1">
          <mxGeometry x="90" y="81" width="50" height="48" as="geometry" />
        </mxCell>
        <mxCell id="7wl6mXjxthsMlMUcTQdT-41" value="" style="sketch=0;html=1;dashed=0;whitespace=wrap;fillColor=#2875E2;strokeColor=#ffffff;points=[[0.005,0.63,0],[0.1,0.2,0],[0.9,0.2,0],[0.5,0,0],[0.995,0.63,0],[0.72,0.99,0],[0.5,1,0],[0.28,0.99,0]];shape=mxgraph.kubernetes.icon;prIcon=deploy" parent="7wl6mXjxthsMlMUcTQdT-43" vertex="1">
          <mxGeometry width="50" height="48" as="geometry" />
        </mxCell>
        <mxCell id="7wl6mXjxthsMlMUcTQdT-42" value="Notification" style="text;html=1;align=center;verticalAlign=middle;resizable=0;points=[];autosize=1;strokeColor=none;fillColor=none;" parent="7wl6mXjxthsMlMUcTQdT-43" vertex="1">
          <mxGeometry x="75" y="34" width="80" height="30" as="geometry" />
        </mxCell>
        <mxCell id="7wl6mXjxthsMlMUcTQdT-51" value="" style="edgeStyle=orthogonalEdgeStyle;rounded=0;orthogonalLoop=1;jettySize=auto;html=1;" parent="1" source="7wl6mXjxthsMlMUcTQdT-28" target="7wl6mXjxthsMlMUcTQdT-33" edge="1">
          <mxGeometry relative="1" as="geometry" />
        </mxCell>
        <mxCell id="7wl6mXjxthsMlMUcTQdT-58" value="" style="endArrow=classic;html=1;rounded=0;exitX=0.5;exitY=1;exitDx=0;exitDy=0;exitPerimeter=0;entryX=0.5;entryY=0;entryDx=0;entryDy=0;entryPerimeter=0;" parent="1" source="7wl6mXjxthsMlMUcTQdT-28" target="7wl6mXjxthsMlMUcTQdT-3" edge="1">
          <mxGeometry width="50" height="50" relative="1" as="geometry">
            <mxPoint x="293" y="1630" as="sourcePoint" />
            <mxPoint x="343" y="1580" as="targetPoint" />
          </mxGeometry>
        </mxCell>
        <mxCell id="7wl6mXjxthsMlMUcTQdT-63" value="" style="endArrow=classic;html=1;rounded=0;exitX=0.005;exitY=0.63;exitDx=0;exitDy=0;exitPerimeter=0;entryX=0.995;entryY=0.63;entryDx=0;entryDy=0;entryPerimeter=0;" parent="1" source="7wl6mXjxthsMlMUcTQdT-40" target="7wl6mXjxthsMlMUcTQdT-3" edge="1">
          <mxGeometry width="50" height="50" relative="1" as="geometry">
            <mxPoint x="393.25" y="1746.7399999999998" as="sourcePoint" />
            <mxPoint x="297.75" y="1746.7399999999998" as="targetPoint" />
          </mxGeometry>
        </mxCell>
        <mxCell id="7wl6mXjxthsMlMUcTQdT-75" value="" style="endArrow=classic;html=1;rounded=0;exitX=0.72;exitY=0.99;exitDx=0;exitDy=0;exitPerimeter=0;entryX=0.1;entryY=0.2;entryDx=0;entryDy=0;entryPerimeter=0;" parent="1" source="7wl6mXjxthsMlMUcTQdT-28" target="7wl6mXjxthsMlMUcTQdT-74" edge="1">
          <mxGeometry width="50" height="50" relative="1" as="geometry">
            <mxPoint x="553" y="1469" as="sourcePoint" />
            <mxPoint x="418" y="1716.5" as="targetPoint" />
          </mxGeometry>
        </mxCell>
        <mxCell id="7wl6mXjxthsMlMUcTQdT-76" value="" style="endArrow=classic;html=1;rounded=0;exitX=0.72;exitY=0.99;exitDx=0;exitDy=0;exitPerimeter=0;entryX=0.1;entryY=0.2;entryDx=0;entryDy=0;entryPerimeter=0;" parent="1" source="7wl6mXjxthsMlMUcTQdT-28" target="7wl6mXjxthsMlMUcTQdT-73" edge="1">
          <mxGeometry width="50" height="50" relative="1" as="geometry">
            <mxPoint x="564" y="1468.52" as="sourcePoint" />
            <mxPoint x="1023.25" y="1860.2399999999998" as="targetPoint" />
          </mxGeometry>
        </mxCell>
        <mxCell id="7wl6mXjxthsMlMUcTQdT-88" value="" style="endArrow=classic;html=1;rounded=0;exitX=0.72;exitY=0.99;exitDx=0;exitDy=0;exitPerimeter=0;entryX=0.5;entryY=0;entryDx=0;entryDy=0;entryPerimeter=0;" parent="1" source="7wl6mXjxthsMlMUcTQdT-34" target="7wl6mXjxthsMlMUcTQdT-73" edge="1">
          <mxGeometry width="50" height="50" relative="1" as="geometry">
            <mxPoint x="564" y="1468.52" as="sourcePoint" />
            <mxPoint x="1023.25" y="1697.2399999999998" as="targetPoint" />
          </mxGeometry>
        </mxCell>
        <mxCell id="7wl6mXjxthsMlMUcTQdT-89" value="" style="endArrow=classic;html=1;rounded=0;exitX=0.995;exitY=0.63;exitDx=0;exitDy=0;exitPerimeter=0;entryX=0.005;entryY=0.63;entryDx=0;entryDy=0;entryPerimeter=0;" parent="1" source="7wl6mXjxthsMlMUcTQdT-40" target="7wl6mXjxthsMlMUcTQdT-73" edge="1">
          <mxGeometry width="50" height="50" relative="1" as="geometry">
            <mxPoint x="713.25" y="1875.7400000000002" as="sourcePoint" />
            <mxPoint x="442.75" y="1746.7399999999998" as="targetPoint" />
          </mxGeometry>
        </mxCell>
        <mxCell id="7wl6mXjxthsMlMUcTQdT-90" value="" style="endArrow=classic;html=1;rounded=0;entryX=0.5;entryY=0;entryDx=0;entryDy=0;entryPerimeter=0;exitX=0.5;exitY=1;exitDx=0;exitDy=0;exitPerimeter=0;" parent="1" source="7wl6mXjxthsMlMUcTQdT-34" target="7wl6mXjxthsMlMUcTQdT-74" edge="1">
          <mxGeometry width="50" height="50" relative="1" as="geometry">
            <mxPoint x="1003" y="1470" as="sourcePoint" />
            <mxPoint x="1078" y="1665" as="targetPoint" />
          </mxGeometry>
        </mxCell>
        <mxCell id="7wl6mXjxthsMlMUcTQdT-91" value="" style="endArrow=classic;html=1;rounded=0;exitX=0.995;exitY=0.63;exitDx=0;exitDy=0;exitPerimeter=0;" parent="1" source="7wl6mXjxthsMlMUcTQdT-40" target="7wl6mXjxthsMlMUcTQdT-74" edge="1">
          <mxGeometry width="50" height="50" relative="1" as="geometry">
            <mxPoint x="762.75" y="1875.7400000000002" as="sourcePoint" />
            <mxPoint x="1053.25" y="1695.2399999999998" as="targetPoint" />
          </mxGeometry>
        </mxCell>
        <mxCell id="7wl6mXjxthsMlMUcTQdT-93" value="" style="group" parent="1" vertex="1" connectable="0">
          <mxGeometry x="160" y="1640" width="290" height="160" as="geometry" />
        </mxCell>
        <mxCell id="7wl6mXjxthsMlMUcTQdT-59" value="" style="rounded=0;whiteSpace=wrap;html=1;fillColor=none;dashed=1;" parent="7wl6mXjxthsMlMUcTQdT-93" vertex="1">
          <mxGeometry x="30" y="21" width="180" height="139" as="geometry" />
        </mxCell>
        <mxCell id="7wl6mXjxthsMlMUcTQdT-3" value="" style="sketch=0;html=1;dashed=0;whitespace=wrap;fillColor=#2875E2;strokeColor=#ffffff;points=[[0.005,0.63,0],[0.1,0.2,0],[0.9,0.2,0],[0.5,0,0],[0.995,0.63,0],[0.72,0.99,0],[0.5,1,0],[0.28,0.99,0]];shape=mxgraph.kubernetes.icon;prIcon=svc" parent="7wl6mXjxthsMlMUcTQdT-93" vertex="1">
          <mxGeometry x="240" y="66.5" width="50" height="48" as="geometry" />
        </mxCell>
        <mxCell id="7wl6mXjxthsMlMUcTQdT-60" value="" style="sketch=0;html=1;dashed=0;whitespace=wrap;fillColor=#2875E2;strokeColor=#ffffff;points=[[0.005,0.63,0],[0.1,0.2,0],[0.9,0.2,0],[0.5,0,0],[0.995,0.63,0],[0.72,0.99,0],[0.5,1,0],[0.28,0.99,0]];shape=mxgraph.kubernetes.icon;prIcon=pod" parent="7wl6mXjxthsMlMUcTQdT-93" vertex="1">
          <mxGeometry x="95" y="66.5" width="50" height="48" as="geometry" />
        </mxCell>
        <mxCell id="7wl6mXjxthsMlMUcTQdT-61" value="" style="sketch=0;html=1;dashed=0;whitespace=wrap;fillColor=#2875E2;strokeColor=#ffffff;points=[[0.005,0.63,0],[0.1,0.2,0],[0.9,0.2,0],[0.5,0,0],[0.995,0.63,0],[0.72,0.99,0],[0.5,1,0],[0.28,0.99,0]];shape=mxgraph.kubernetes.icon;prIcon=sts" parent="7wl6mXjxthsMlMUcTQdT-93" vertex="1">
          <mxGeometry width="50" height="48" as="geometry" />
        </mxCell>
        <mxCell id="7wl6mXjxthsMlMUcTQdT-64" value="RabbitMQ" style="text;html=1;align=center;verticalAlign=middle;resizable=0;points=[];autosize=1;strokeColor=none;fillColor=none;" parent="7wl6mXjxthsMlMUcTQdT-93" vertex="1">
          <mxGeometry x="80" y="35" width="80" height="30" as="geometry" />
        </mxCell>
        <mxCell id="7wl6mXjxthsMlMUcTQdT-62" value="" style="endArrow=classic;html=1;rounded=0;exitX=0.005;exitY=0.63;exitDx=0;exitDy=0;exitPerimeter=0;entryX=0.995;entryY=0.63;entryDx=0;entryDy=0;entryPerimeter=0;" parent="7wl6mXjxthsMlMUcTQdT-93" source="7wl6mXjxthsMlMUcTQdT-3" target="7wl6mXjxthsMlMUcTQdT-60" edge="1">
          <mxGeometry width="50" height="50" relative="1" as="geometry">
            <mxPoint x="670" y="1580" as="sourcePoint" />
            <mxPoint x="720" y="1430" as="targetPoint" />
          </mxGeometry>
        </mxCell>
        <mxCell id="7wl6mXjxthsMlMUcTQdT-98" value="" style="group" parent="1" vertex="1" connectable="0">
          <mxGeometry x="1013" y="1772" width="310" height="157" as="geometry" />
        </mxCell>
        <mxCell id="7wl6mXjxthsMlMUcTQdT-80" value="" style="rounded=0;whiteSpace=wrap;html=1;fillColor=none;dashed=1;" parent="7wl6mXjxthsMlMUcTQdT-98" vertex="1">
          <mxGeometry x="130" y="18" width="180" height="139" as="geometry" />
        </mxCell>
        <mxCell id="7wl6mXjxthsMlMUcTQdT-74" value="" style="sketch=0;html=1;dashed=0;whitespace=wrap;fillColor=#2875E2;strokeColor=#ffffff;points=[[0.005,0.63,0],[0.1,0.2,0],[0.9,0.2,0],[0.5,0,0],[0.995,0.63,0],[0.72,0.99,0],[0.5,1,0],[0.28,0.99,0]];shape=mxgraph.kubernetes.icon;prIcon=svc" parent="7wl6mXjxthsMlMUcTQdT-98" vertex="1">
          <mxGeometry y="48" width="50" height="48" as="geometry" />
        </mxCell>
        <mxCell id="7wl6mXjxthsMlMUcTQdT-81" value="Zipkin" style="text;html=1;align=center;verticalAlign=middle;resizable=0;points=[];autosize=1;strokeColor=none;fillColor=none;" parent="7wl6mXjxthsMlMUcTQdT-98" vertex="1">
          <mxGeometry x="190" y="32" width="60" height="30" as="geometry" />
        </mxCell>
        <mxCell id="7wl6mXjxthsMlMUcTQdT-83" value="" style="sketch=0;html=1;dashed=0;whitespace=wrap;fillColor=#2875E2;strokeColor=#ffffff;points=[[0.005,0.63,0],[0.1,0.2,0],[0.9,0.2,0],[0.5,0,0],[0.995,0.63,0],[0.72,0.99,0],[0.5,1,0],[0.28,0.99,0]];shape=mxgraph.kubernetes.icon;prIcon=pod" parent="7wl6mXjxthsMlMUcTQdT-98" vertex="1">
          <mxGeometry x="195" y="76" width="50" height="48" as="geometry" />
        </mxCell>
        <mxCell id="7wl6mXjxthsMlMUcTQdT-87" value="" style="sketch=0;html=1;dashed=0;whitespace=wrap;fillColor=#2875E2;strokeColor=#ffffff;points=[[0.005,0.63,0],[0.1,0.2,0],[0.9,0.2,0],[0.5,0,0],[0.995,0.63,0],[0.72,0.99,0],[0.5,1,0],[0.28,0.99,0]];shape=mxgraph.kubernetes.icon;prIcon=sts" parent="7wl6mXjxthsMlMUcTQdT-98" vertex="1">
          <mxGeometry x="100" width="50" height="48" as="geometry" />
        </mxCell>
        <mxCell id="7wl6mXjxthsMlMUcTQdT-85" value="" style="endArrow=classic;html=1;rounded=0;exitX=0.995;exitY=0.63;exitDx=0;exitDy=0;exitPerimeter=0;entryX=0.005;entryY=0.63;entryDx=0;entryDy=0;entryPerimeter=0;" parent="7wl6mXjxthsMlMUcTQdT-98" source="7wl6mXjxthsMlMUcTQdT-74" target="7wl6mXjxthsMlMUcTQdT-83" edge="1">
          <mxGeometry width="50" height="50" relative="1" as="geometry">
            <mxPoint x="1449.75" y="1547.2399999999998" as="sourcePoint" />
            <mxPoint x="1595.25" y="1565.2399999999998" as="targetPoint" />
          </mxGeometry>
        </mxCell>
        <mxCell id="7wl6mXjxthsMlMUcTQdT-99" value="" style="group" parent="1" vertex="1" connectable="0">
          <mxGeometry x="1043" y="1592" width="320" height="158" as="geometry" />
        </mxCell>
        <mxCell id="7wl6mXjxthsMlMUcTQdT-77" value="" style="rounded=0;whiteSpace=wrap;html=1;fillColor=none;dashed=1;" parent="7wl6mXjxthsMlMUcTQdT-99" vertex="1">
          <mxGeometry x="100" y="19" width="220" height="131" as="geometry" />
        </mxCell>
        <mxCell id="7wl6mXjxthsMlMUcTQdT-73" value="" style="sketch=0;html=1;dashed=0;whitespace=wrap;fillColor=#2875E2;strokeColor=#ffffff;points=[[0.005,0.63,0],[0.1,0.2,0],[0.9,0.2,0],[0.5,0,0],[0.995,0.63,0],[0.72,0.99,0],[0.5,1,0],[0.28,0.99,0]];shape=mxgraph.kubernetes.icon;prIcon=svc" parent="7wl6mXjxthsMlMUcTQdT-99" vertex="1">
          <mxGeometry y="63" width="50" height="48" as="geometry" />
        </mxCell>
        <mxCell id="7wl6mXjxthsMlMUcTQdT-78" value="Postgres" style="text;html=1;align=center;verticalAlign=middle;resizable=0;points=[];autosize=1;strokeColor=none;fillColor=none;" parent="7wl6mXjxthsMlMUcTQdT-99" vertex="1">
          <mxGeometry x="155" y="33" width="70" height="30" as="geometry" />
        </mxCell>
        <mxCell id="7wl6mXjxthsMlMUcTQdT-109" value="" style="edgeStyle=orthogonalEdgeStyle;rounded=0;orthogonalLoop=1;jettySize=auto;html=1;" parent="7wl6mXjxthsMlMUcTQdT-99" source="7wl6mXjxthsMlMUcTQdT-82" target="7wl6mXjxthsMlMUcTQdT-108" edge="1">
          <mxGeometry relative="1" as="geometry" />
        </mxCell>
        <mxCell id="7wl6mXjxthsMlMUcTQdT-82" value="" style="sketch=0;html=1;dashed=0;whitespace=wrap;fillColor=#2875E2;strokeColor=#ffffff;points=[[0.005,0.63,0],[0.1,0.2,0],[0.9,0.2,0],[0.5,0,0],[0.995,0.63,0],[0.72,0.99,0],[0.5,1,0],[0.28,0.99,0]];shape=mxgraph.kubernetes.icon;prIcon=pod" parent="7wl6mXjxthsMlMUcTQdT-99" vertex="1">
          <mxGeometry x="165" y="83" width="50" height="48" as="geometry" />
        </mxCell>
        <mxCell id="7wl6mXjxthsMlMUcTQdT-86" value="" style="sketch=0;html=1;dashed=0;whitespace=wrap;fillColor=#2875E2;strokeColor=#ffffff;points=[[0.005,0.63,0],[0.1,0.2,0],[0.9,0.2,0],[0.5,0,0],[0.995,0.63,0],[0.72,0.99,0],[0.5,1,0],[0.28,0.99,0]];shape=mxgraph.kubernetes.icon;prIcon=sts" parent="7wl6mXjxthsMlMUcTQdT-99" vertex="1">
          <mxGeometry x="70" width="50" height="48" as="geometry" />
        </mxCell>
        <mxCell id="7wl6mXjxthsMlMUcTQdT-84" value="" style="endArrow=classic;html=1;rounded=0;exitX=0.995;exitY=0.63;exitDx=0;exitDy=0;exitPerimeter=0;entryX=0.005;entryY=0.63;entryDx=0;entryDy=0;entryPerimeter=0;" parent="7wl6mXjxthsMlMUcTQdT-99" source="7wl6mXjxthsMlMUcTQdT-73" target="7wl6mXjxthsMlMUcTQdT-82" edge="1">
          <mxGeometry width="50" height="50" relative="1" as="geometry">
            <mxPoint x="941" y="1318.52" as="sourcePoint" />
            <mxPoint x="1400.25" y="1547.2399999999998" as="targetPoint" />
          </mxGeometry>
        </mxCell>
        <mxCell id="7wl6mXjxthsMlMUcTQdT-108" value="" style="sketch=0;html=1;dashed=0;whitespace=wrap;fillColor=#2875E2;strokeColor=#ffffff;points=[[0.005,0.63,0],[0.1,0.2,0],[0.9,0.2,0],[0.5,0,0],[0.995,0.63,0],[0.72,0.99,0],[0.5,1,0],[0.28,0.99,0]];shape=mxgraph.kubernetes.icon;prIcon=pvc" parent="7wl6mXjxthsMlMUcTQdT-99" vertex="1">
          <mxGeometry x="250" y="83" width="50" height="48" as="geometry" />
        </mxCell>
        <mxCell id="7wl6mXjxthsMlMUcTQdT-100" value="" style="edgeStyle=orthogonalEdgeStyle;rounded=0;orthogonalLoop=1;jettySize=auto;html=1;" parent="1" source="7wl6mXjxthsMlMUcTQdT-60" target="7wl6mXjxthsMlMUcTQdT-6" edge="1">
          <mxGeometry relative="1" as="geometry" />
        </mxCell>
        <mxCell id="7wl6mXjxthsMlMUcTQdT-110" value="" style="sketch=0;html=1;dashed=0;whitespace=wrap;fillColor=#2875E2;strokeColor=#ffffff;points=[[0.005,0.63,0],[0.1,0.2,0],[0.9,0.2,0],[0.5,0,0],[0.995,0.63,0],[0.72,0.99,0],[0.5,1,0],[0.28,0.99,0]];shape=mxgraph.kubernetes.icon;prIcon=pv" parent="1" vertex="1">
          <mxGeometry x="1293" y="1544" width="50" height="48" as="geometry" />
        </mxCell>
        <mxCell id="7wl6mXjxthsMlMUcTQdT-111" value="" style="edgeStyle=orthogonalEdgeStyle;rounded=0;orthogonalLoop=1;jettySize=auto;html=1;" parent="1" source="7wl6mXjxthsMlMUcTQdT-108" target="7wl6mXjxthsMlMUcTQdT-110" edge="1">
          <mxGeometry relative="1" as="geometry" />
        </mxCell>
      </root>
    </mxGraphModel>
  </diagram>
</mxfile>
